<?xml version="1.0" encoding="utf-8"?>
<!DOCTYPE svg PUBLIC "-//W3C//DTD SVG 20010904//EN" "http://www.w3.org/TR/2001/REC-SVG-20010904/DTD/svg10.dtd">
<svg version="1.0" xmlns="http://www.w3.org/2000/svg" width="2002pt" height="2002pt" viewBox="0 0 2002 2002" preserveAspectRatio="xMidYMid meet">
<g fill="#2A4866FD">
<path d="M 987.07 918.09 C 974.53 905.41 973.52 904.10 971.96 898.50 C 967.59 882.88 956.35 860.03 945.30 844.30 C 935.56 830.43 915.70 810.50 903.74 802.59 C 898.92 799.40 889.69 794.15 883.24 790.91 C 876.78 787.66 870.94 784.54 870.25 783.97 C 869.56 783.39 869.00 783.12 869.00 783.37 C 869.00 783.62 864.84 782.34 859.75 780.52 C 839.75 773.39 813.85 768.98 792.14 769.02 C 779.50 769.04 770.79 770.71 761.56 774.90 C 757.83 776.59 754.30 777.69 753.73 777.33 C 753.16 776.98 752.97 777.14 753.30 777.68 C 753.64 778.22 751.12 780.60 747.71 782.96 L 741.50 787.26 L 749.25 779.36 C 753.51 775.01 757.00 771.07 757.00 770.60 C 757.00 769.35 746.21 770.73 733.02 773.66 C 721.39 776.24 710.44 779.89 695.00 786.35 C 686.25 790.00 686.73 789.25 697.26 782.76 C 709.10 775.46 732.47 767.87 757.00 763.34 C 764.57 761.95 772.25 761.58 794.75 761.55 C 810.29 761.52 823.00 761.23 823.00 760.91 C 823.00 760.58 819.06 755.58 814.25 749.79 C 799.91 732.56 791.70 715.98 786.63 694.00 C 782.56 676.35 782.28 675.58 777.04 667.75 C 763.78 647.93 742.78 635.10 711.20 627.51 C 707.19 626.55 704.12 625.55 704.38 625.28 C 704.64 625.02 709.73 625.56 715.68 626.48 C 738.45 630.00 758.94 639.38 776.28 654.24 C 779.46 656.96 782.66 658.96 783.39 658.68 C 784.12 658.40 785.02 655.87 785.40 653.07 C 787.00 641.01 791.09 628.26 797.55 615.26 C 804.03 602.21 807.65 596.84 815.93 588.00 C 820.64 582.96 820.44 583.64 814.43 593.00 C 800.00 615.47 793.91 636.42 793.93 663.50 C 793.96 696.10 807.52 727.59 829.68 746.49 C 841.14 756.28 854.00 764.03 867.00 768.99 C 875.73 772.33 899.56 782.33 901.17 783.34 C 902.42 784.12 903.26 784.14 904.01 783.39 C 904.75 782.65 903.74 778.94 900.61 770.92 C 889.12 741.47 887.71 718.55 895.01 679.94 C 899.43 656.57 899.84 654.04 901.50 639.15 C 903.98 617.08 903.18 594.69 899.30 577.50 C 898.43 573.65 897.67 569.31 897.61 567.85 C 897.55 566.39 897.25 565.35 896.94 565.54 C 896.37 565.89 890.96 550.18 891.05 548.44 C 891.13 546.89 896.79 558.39 899.54 565.69 C 906.41 583.91 909.96 603.14 909.96 622.00 C 909.96 627.77 909.05 643.52 907.95 657.00 C 904.87 694.68 904.55 701.61 905.90 702.44 C 906.59 702.86 909.58 700.82 913.28 697.40 C 919.54 691.60 924.93 687.90 944.40 676.05 C 968.18 661.58 977.47 650.51 985.57 627.00 C 989.15 616.63 989.88 617.73 987.44 629.79 C 986.52 634.39 983.92 641.56 981.02 647.56 C 976.89 656.10 974.90 658.86 967.96 665.74 C 963.45 670.20 953.55 678.20 945.94 683.51 C 924.29 698.62 913.71 710.25 909.54 723.51 C 907.20 730.96 907.88 737.59 912.47 751.77 C 919.63 773.91 933.06 796.34 946.30 808.26 C 962.50 822.84 980.73 843.92 996.02 865.75 C 998.42 869.19 1000.64 871.98 1000.95 871.96 C 1001.25 871.94 1003.75 868.72 1006.50 864.81 C 1019.92 845.73 1027.45 836.75 1044.59 819.37 C 1063.01 800.70 1069.97 791.90 1078.50 776.51 C 1085.87 763.21 1092.33 742.25 1092.40 731.39 C 1092.44 725.15 1091.99 723.38 1088.76 716.89 C 1082.56 704.47 1072.97 695.23 1051.50 680.98 C 1047.10 678.06 1039.60 671.76 1034.84 666.98 C 1027.38 659.49 1025.47 656.84 1021.14 647.89 C 1016.22 637.72 1012.94 625.93 1013.05 618.79 C 1013.09 616.39 1013.77 617.79 1015.56 624.00 C 1019.51 637.65 1026.86 651.52 1033.69 658.16 C 1040.68 664.97 1051.86 673.04 1064.88 680.68 C 1075.51 686.92 1087.18 695.29 1090.92 699.36 C 1095.76 704.62 1097.50 701.96 1096.57 690.71 C 1096.24 686.74 1094.81 670.67 1093.38 655.00 C 1089.95 617.23 1091.00 600.03 1098.16 576.50 C 1101.85 564.39 1107.89 550.82 1109.24 551.65 C 1109.77 551.98 1109.83 552.53 1109.36 552.88 C 1108.89 553.22 1108.35 554.17 1108.16 555.00 C 1107.97 555.83 1106.27 561.88 1104.38 568.45 C 1095.90 597.85 1096.13 621.18 1105.41 671.50 C 1110.24 697.73 1111.55 713.87 1110.09 729.38 C 1108.60 745.22 1105.00 760.95 1100.44 771.56 C 1095.98 781.97 1096.77 785.65 1102.60 781.57 C 1105.33 779.65 1119.98 773.63 1132.41 769.32 C 1137.96 767.39 1146.78 763.61 1152.00 760.92 C 1176.67 748.23 1194.39 724.74 1203.66 692.48 C 1207.25 679.97 1207.38 678.94 1207.36 664.00 C 1207.33 647.13 1205.64 635.16 1201.64 623.42 C 1198.62 614.55 1188.78 594.90 1184.30 588.75 C 1182.39 586.14 1181.30 584.00 1181.87 584.00 C 1183.00 584.00 1191.73 594.61 1196.92 602.29 C 1204.26 613.16 1213.75 637.51 1215.93 651.06 C 1216.49 654.52 1217.37 657.77 1217.90 658.30 C 1218.50 658.90 1222.40 656.45 1228.52 651.61 C 1240.03 642.52 1243.78 640.25 1255.95 634.97 C 1266.09 630.57 1276.78 627.55 1287.46 626.06 C 1295.50 624.94 1297.16 625.38 1290.85 626.96 C 1281.31 629.34 1263.22 635.37 1258.50 637.74 C 1244.46 644.80 1229.92 657.79 1222.64 669.76 C 1219.79 674.46 1218.38 678.56 1216.46 687.68 C 1210.85 714.31 1202.08 732.90 1186.15 751.91 C 1182.73 755.98 1180.08 759.73 1180.25 760.24 C 1180.42 760.76 1192.44 761.25 1208.03 761.38 C 1234.66 761.59 1235.98 761.70 1251.29 764.84 C 1268.95 768.47 1276.42 770.61 1289.41 775.73 C 1298.11 779.16 1313.57 787.77 1312.66 788.68 C 1312.41 788.93 1309.48 787.76 1306.16 786.08 C 1288.43 777.13 1246.05 766.88 1243.54 770.93 C 1243.23 771.44 1245.56 773.87 1248.73 776.33 C 1251.91 778.78 1255.85 782.24 1257.50 784.01 C 1259.94 786.63 1258.79 786.11 1251.28 781.21 C 1245.84 777.65 1238.67 774.02 1233.78 772.34 C 1225.84 769.62 1224.77 769.50 1207.50 769.57 C 1197.60 769.62 1186.12 770.20 1182.00 770.86 C 1169.89 772.82 1152.08 776.97 1144.00 779.71 C 1127.52 785.31 1106.25 796.31 1092.77 806.21 C 1084.74 812.11 1066.17 831.32 1057.96 842.22 C 1046.97 856.80 1035.49 879.06 1029.88 896.66 L 1026.74 906.50 L 1013.80 919.25 C 1006.68 926.26 1000.78 931.93 1000.68 931.84 C 1000.58 931.75 994.46 925.56 987.07 918.09Z"/></g>
<g fill="#7B573BFC">
<path d="M 1004.66 1238.77 C 1004.21 1234.28 1002.81 1230.02 999.72 1223.76 C 997.35 1218.96 995.66 1214.87 995.96 1214.68 C 996.26 1214.49 995.96 1214.46 995.30 1214.61 C 994.64 1214.77 989.75 1210.20 984.43 1204.45 C 979.11 1198.70 974.02 1194.00 973.13 1194.00 C 970.82 1193.99 951.61 1213.89 949.02 1218.96 C 946.23 1224.44 945.56 1223.68 947.66 1217.42 C 949.73 1211.27 954.23 1204.20 960.86 1196.70 C 968.28 1188.31 968.35 1188.10 967.56 1176.58 C 966.60 1162.46 965.85 1159.42 963.44 1159.85 C 962.37 1160.04 956.88 1164.68 951.24 1170.17 C 939.94 1181.15 934.21 1184.44 917.74 1189.42 C 909.34 1191.96 890.94 1200.23 887.26 1203.12 C 886.29 1203.88 886.85 1202.84 888.50 1200.82 C 890.15 1198.80 892.06 1197.32 892.74 1197.54 C 893.42 1197.75 893.87 1197.43 893.74 1196.82 C 893.27 1194.66 901.05 1190.01 918.44 1182.05 C 923.35 1179.80 929.69 1176.16 932.53 1173.98 C 935.36 1171.79 938.38 1170.00 939.22 1170.00 C 940.06 1170.00 941.33 1169.31 942.03 1168.47 C 943.14 1167.13 942.97 1167.06 940.71 1167.92 C 939.28 1168.46 937.14 1168.72 935.94 1168.49 C 932.45 1167.82 907.16 1169.97 899.06 1171.63 C 890.18 1173.46 884.57 1175.52 859.96 1186.02 C 849.67 1190.41 840.63 1193.97 839.87 1193.93 C 839.12 1193.90 839.51 1193.38 840.75 1192.78 C 843.42 1191.49 843.73 1188.35 841.25 1187.61 C 838.68 1186.83 820.73 1184.03 811.52 1182.96 C 799.99 1181.62 793.34 1182.99 779.85 1189.48 C 773.58 1192.49 766.89 1195.20 764.98 1195.50 C 761.69 1196.02 761.63 1195.99 764.00 1194.85 C 765.38 1194.18 770.84 1191.25 776.15 1188.32 C 786.47 1182.63 788.04 1182.04 785.87 1184.66 C 784.63 1186.17 784.71 1186.22 786.78 1185.11 C 788.03 1184.45 788.80 1183.49 788.49 1182.99 C 787.21 1180.91 799.41 1178.57 811.67 1178.54 C 818.36 1178.52 824.16 1178.17 824.57 1177.77 C 824.97 1177.36 825.87 1177.81 826.57 1178.77 C 827.66 1180.26 829.67 1180.50 841.17 1180.50 L 854.50 1180.50 L 869.50 1173.33 C 887.76 1164.61 890.04 1163.83 911.68 1159.00 C 928.91 1155.14 935.99 1152.73 940.54 1149.15 C 942.98 1147.23 942.98 1147.23 940.82 1146.66 C 939.63 1146.35 935.02 1146.57 930.58 1147.16 C 925.44 1147.83 912.06 1147.98 893.78 1147.57 C 859.90 1146.81 861.71 1146.35 848.30 1159.19 C 843.32 1163.96 839.55 1166.84 838.85 1166.41 C 838.18 1166.00 837.96 1166.12 838.32 1166.71 C 839.11 1167.98 835.62 1171.29 834.59 1170.25 C 834.17 1169.84 833.98 1170.10 834.17 1170.84 C 834.35 1171.58 833.61 1172.71 832.52 1173.34 C 831.44 1173.98 830.04 1175.13 829.43 1175.90 C 828.81 1176.68 828.05 1176.89 827.73 1176.37 C 826.91 1175.04 833.96 1166.86 835.24 1167.65 C 835.86 1168.03 836.02 1167.84 835.62 1167.19 C 835.23 1166.57 837.83 1162.63 841.48 1158.29 C 845.08 1154.00 847.90 1149.83 847.74 1149.00 C 847.52 1147.82 846.20 1147.58 841.48 1147.86 C 832.82 1148.39 823.79 1151.48 813.25 1157.52 C 808.16 1160.44 804.00 1162.39 804.00 1161.86 C 804.00 1161.32 803.54 1161.16 802.98 1161.51 C 802.42 1161.86 802.21 1162.53 802.50 1163.01 C 803.27 1164.25 794.21 1170.25 792.84 1169.40 C 792.17 1168.99 791.96 1169.13 792.34 1169.74 C 793.17 1171.09 790.50 1172.13 788.34 1171.30 C 787.34 1170.92 786.92 1171.07 787.29 1171.67 C 788.03 1172.87 782.89 1175.48 778.00 1176.38 C 774.90 1176.95 775.09 1176.75 779.66 1174.61 C 782.50 1173.28 786.52 1171.04 788.58 1169.64 C 790.65 1168.24 792.78 1167.36 793.32 1167.70 C 793.86 1168.03 794.01 1167.82 793.64 1167.23 C 792.76 1165.81 812.83 1149.68 820.05 1146.00 C 826.14 1142.90 832.31 1140.98 844.50 1138.41 C 850.89 1137.06 858.84 1136.67 884.00 1136.51 C 912.45 1136.33 916.24 1136.11 923.14 1134.22 C 948.19 1127.39 971.65 1107.19 993.45 1073.72 C 1001.81 1060.88 1017.59 1026.45 1020.59 1014.51 C 1021.23 1011.94 1021.41 1011.82 1022.03 1013.54 C 1022.59 1015.08 1022.96 1014.54 1023.76 1011.00 C 1024.78 1006.53 1024.79 1006.56 1024.87 1014.00 C 1024.99 1025.00 1023.36 1039.39 1020.98 1048.42 C 1018.29 1058.59 1013.84 1070.02 1012.82 1069.39 C 1012.38 1069.12 1012.26 1069.50 1012.54 1070.25 C 1013.28 1072.17 1003.09 1087.99 995.37 1096.94 C 991.77 1101.10 985.61 1107.35 981.67 1110.84 C 974.90 1116.82 959.04 1127.99 957.30 1128.01 C 956.86 1128.01 954.70 1129.15 952.50 1130.55 L 948.50 1133.09 L 955.00 1132.76 C 973.29 1131.83 999.64 1110.28 1016.31 1082.60 C 1018.16 1079.53 1020.05 1077.35 1020.50 1077.76 C 1020.95 1078.17 1021.02 1077.98 1020.66 1077.35 C 1020.30 1076.72 1021.84 1071.63 1024.08 1066.05 C 1028.94 1053.94 1032.88 1036.18 1033.71 1022.74 C 1034.04 1017.36 1034.43 1013.09 1034.58 1013.24 C 1034.73 1013.40 1035.10 1015.31 1035.39 1017.51 C 1035.69 1019.70 1036.44 1024.20 1037.06 1027.50 C 1037.78 1031.28 1037.99 1039.43 1037.64 1049.50 C 1037.19 1062.51 1036.52 1067.93 1034.03 1078.50 C 1029.85 1096.24 1029.87 1097.91 1034.20 1103.20 C 1047.35 1119.23 1062.28 1129.41 1079.70 1134.21 C 1086.81 1136.16 1090.17 1136.37 1117.50 1136.51 C 1166.18 1136.75 1178.83 1140.37 1203.00 1160.96 C 1208.46 1165.61 1215.84 1170.74 1220.37 1173.02 C 1229.25 1177.52 1228.30 1178.17 1218.07 1174.59 C 1212.47 1172.64 1193.26 1161.04 1187.29 1156.02 C 1186.63 1155.46 1185.64 1155.00 1185.09 1155.00 C 1184.55 1155.00 1183.70 1154.28 1183.21 1153.41 C 1182.72 1152.54 1181.91 1151.84 1181.41 1151.87 C 1180.91 1151.90 1177.80 1151.09 1174.50 1150.07 C 1166.95 1147.74 1153.51 1146.37 1152.60 1147.84 C 1151.96 1148.87 1166.27 1166.28 1174.63 1174.67 L 1178.79 1178.85 L 1190.17 1178.29 C 1199.12 1177.84 1202.77 1178.08 1207.31 1179.40 C 1211.01 1180.48 1212.82 1181.48 1212.38 1182.19 C 1211.96 1182.88 1212.15 1183.03 1212.87 1182.58 C 1213.53 1182.17 1217.91 1183.94 1222.78 1186.58 C 1227.57 1189.18 1233.97 1192.38 1237.00 1193.68 L 1242.50 1196.05 L 1238.00 1195.44 C 1235.53 1195.10 1228.78 1192.56 1223.00 1189.80 C 1211.50 1184.30 1204.46 1182.03 1198.84 1182.01 C 1194.62 1182.00 1165.61 1186.82 1162.25 1188.10 C 1159.25 1189.23 1159.41 1190.62 1162.75 1192.43 C 1166.53 1194.48 1165.36 1194.36 1158.41 1191.98 C 1147.78 1188.35 1139.98 1184.63 1141.28 1183.80 C 1142.03 1183.32 1141.54 1183.07 1140.00 1183.16 C 1138.62 1183.23 1132.87 1181.43 1127.21 1179.14 C 1121.56 1176.86 1113.68 1174.08 1109.71 1172.98 C 1101.76 1170.76 1069.01 1167.59 1067.69 1168.91 C 1065.43 1171.17 1078.55 1180.03 1092.29 1185.53 C 1099.02 1188.22 1110.27 1196.71 1113.35 1201.41 L 1115.14 1204.15 L 1112.82 1202.95 C 1111.54 1202.29 1109.60 1200.98 1108.50 1200.04 C 1105.46 1197.44 1097.98 1193.42 1093.50 1191.98 C 1091.30 1191.28 1088.39 1189.98 1087.04 1189.10 C 1085.68 1188.22 1084.90 1188.02 1085.29 1188.66 C 1085.77 1189.43 1085.35 1189.64 1084.01 1189.29 C 1082.92 1189.01 1082.27 1188.38 1082.56 1187.90 C 1082.86 1187.42 1082.46 1187.27 1081.67 1187.57 C 1080.88 1187.88 1077.44 1186.95 1074.03 1185.51 C 1066.44 1182.32 1065.50 1182.86 1064.58 1190.99 C 1063.69 1198.90 1062.00 1199.77 1062.02 1192.31 C 1062.02 1188.70 1062.35 1187.01 1062.89 1187.85 C 1063.49 1188.81 1063.88 1188.30 1064.20 1186.10 C 1064.45 1184.40 1064.28 1183.00 1063.83 1183.00 C 1063.37 1183.00 1062.96 1183.79 1062.92 1184.75 C 1062.88 1185.71 1062.15 1184.55 1061.31 1182.17 C 1058.56 1174.39 1046.41 1163.13 1023.29 1146.94 C 1017.59 1142.94 1013.08 1141.94 1011.26 1144.25 C 1009.62 1146.33 1009.00 1155.89 1010.14 1161.36 C 1010.74 1164.19 1013.05 1170.03 1015.28 1174.35 C 1019.28 1182.11 1021.99 1185.24 1037.72 1200.24 C 1043.14 1205.40 1045.87 1209.08 1049.44 1215.99 C 1053.60 1224.04 1053.88 1225.00 1052.13 1225.00 C 1050.97 1225.00 1049.30 1223.60 1048.06 1221.59 C 1045.10 1216.80 1033.31 1206.00 1031.04 1206.00 C 1029.06 1206.00 1028.69 1207.11 1027.49 1216.50 C 1026.81 1221.87 1024.04 1232.38 1023.46 1231.80 C 1023.27 1231.60 1023.58 1229.43 1024.14 1226.97 C 1024.71 1224.51 1025.00 1218.64 1024.79 1213.92 C 1024.48 1207.01 1023.84 1204.18 1021.52 1199.42 C 1019.94 1196.16 1017.87 1192.94 1016.92 1192.26 C 1014.28 1190.37 1002.18 1174.70 994.54 1163.30 C 990.78 1157.69 987.10 1152.87 986.35 1152.58 C 982.33 1151.04 979.00 1157.63 978.24 1168.62 C 977.49 1179.58 980.16 1186.29 991.22 1201.25 C 1001.68 1215.40 1004.75 1221.61 1005.93 1230.97 C 1006.69 1237.06 1006.56 1243.78 1005.64 1244.69 C 1005.45 1244.88 1005.01 1242.22 1004.66 1238.77ZM 1174.50 1179.85 C 1175.17 1179.17 1172.90 1176.45 1167.57 1171.56 C 1161.97 1166.43 1160.06 1164.11 1161.07 1163.67 C 1161.99 1163.28 1161.79 1163.14 1160.54 1163.28 C 1159.18 1163.43 1158.04 1162.42 1156.83 1160.00 C 1155.69 1157.69 1155.08 1157.13 1155.05 1158.36 C 1155.01 1159.78 1153.60 1158.92 1149.04 1154.70 C 1141.03 1147.28 1138.60 1146.61 1122.60 1147.37 C 1082.77 1149.28 1074.66 1149.15 1063.75 1146.45 C 1059.19 1145.32 1060.64 1147.34 1066.75 1150.65 C 1073.62 1154.36 1081.53 1156.96 1097.00 1160.59 C 1110.02 1163.64 1125.32 1168.91 1132.00 1172.65 C 1138.38 1176.22 1147.62 1180.01 1152.41 1181.03 C 1157.41 1182.09 1173.12 1181.26 1174.50 1179.85Z"/></g>
<g fill="#2A4866FD">
<path d="M 861.08 1510.91 C 847.09 1508.17 835.12 1502.04 825.19 1492.56 C 816.03 1483.80 811.08 1475.87 806.77 1463.00 C 803.92 1454.50 803.59 1452.29 803.60 1442.00 C 803.61 1431.71 803.94 1429.53 806.78 1421.26 C 810.94 1409.15 816.42 1400.67 825.68 1392.02 C 841.97 1376.82 863.87 1370.02 887.01 1372.99 C 909.76 1375.91 928.70 1388.06 940.24 1407.15 C 947.81 1419.67 951.33 1437.57 949.16 1452.57 C 944.88 1482.15 924.02 1504.40 894.78 1510.55 C 887.28 1512.12 868.30 1512.33 861.08 1510.91ZM 892.00 1489.33 C 903.33 1486.22 914.29 1477.30 918.95 1467.39 C 922.97 1458.83 924.27 1451.38 923.81 1439.44 C 923.42 1429.21 923.10 1427.75 919.77 1420.74 C 910.87 1401.99 895.50 1393.23 873.28 1394.21 C 863.96 1394.63 862.39 1395.00 855.50 1398.40 C 838.04 1407.03 829.04 1421.86 829.01 1442.07 C 828.99 1459.50 836.60 1474.90 849.27 1483.10 C 861.83 1491.21 877.04 1493.43 892.00 1489.33Z"/></g>
<g fill="#2A4866FD">
<path d="M 646.86 1506.32 C 646.66 1504.22 646.73 1473.92 647.00 1439.00 L 647.50 1375.50 L 684.00 1375.50 C 718.60 1375.50 720.94 1375.62 729.00 1377.74 C 745.02 1381.96 760.00 1391.54 767.43 1402.33 C 778.91 1419.00 782.99 1444.36 777.04 1462.00 C 770.39 1481.73 760.68 1493.99 745.94 1501.26 C 730.53 1508.86 727.18 1509.33 684.86 1509.76 L 647.22 1510.15 L 646.86 1506.32ZM 717.64 1488.50 C 740.86 1484.06 755.00 1466.96 755.00 1443.34 C 755.00 1420.01 743.54 1404.11 722.00 1397.55 C 715.39 1395.53 693.26 1394.41 680.75 1395.45 L 672.00 1396.18 L 672.00 1442.42 C 672.00 1467.86 672.30 1488.97 672.67 1489.33 C 674.02 1490.69 709.66 1490.03 717.64 1488.50Z"/></g>
<g fill="#99A657FC">
<path d="M 611.50 1320.13 C 603.73 1315.31 561.33 1266.04 551.15 1250.00 C 550.27 1248.62 547.85 1245.20 545.76 1242.38 C 527.82 1218.22 500.35 1164.96 486.18 1126.87 C 451.93 1034.77 442.75 938.12 458.88 839.45 C 467.27 788.13 483.87 737.61 508.63 688.00 C 551.17 602.78 613.93 532.07 696.09 476.81 C 721.52 459.71 731.26 454.12 759.47 440.45 C 790.80 425.27 816.46 415.50 851.00 405.60 C 877.40 398.03 914.24 391.08 944.50 387.96 C 977.85 384.52 1034.98 385.03 1068.00 389.07 C 1130.65 396.72 1185.63 412.89 1242.00 440.23 C 1267.83 452.76 1281.27 460.42 1303.24 475.12 C 1341.40 500.65 1357.70 514.05 1392.02 548.12 C 1439.24 594.99 1479.07 653.59 1505.80 715.50 C 1511.38 728.41 1527.91 774.60 1529.94 782.91 C 1530.42 784.88 1532.19 791.67 1533.87 798.00 C 1539.16 817.85 1545.24 854.76 1548.55 887.00 C 1550.69 907.93 1550.14 967.35 1547.60 989.50 C 1538.10 1072.16 1517.48 1137.03 1479.36 1204.24 C 1463.11 1232.89 1435.55 1271.89 1419.45 1289.00 C 1417.12 1291.47 1412.96 1296.20 1410.21 1299.50 C 1407.46 1302.80 1401.36 1309.29 1396.66 1313.92 C 1389.22 1321.25 1387.91 1322.17 1386.51 1321.01 C 1385.63 1320.28 1385.05 1319.12 1385.21 1318.42 C 1385.37 1317.73 1392.39 1309.85 1400.82 1300.91 C 1444.18 1254.90 1472.75 1211.35 1501.80 1147.00 C 1514.90 1117.97 1527.06 1079.12 1534.50 1042.50 C 1546.41 983.91 1548.15 907.41 1538.90 849.00 C 1527.08 774.38 1498.07 698.48 1458.93 639.84 C 1437.38 607.54 1430.36 598.22 1410.53 575.50 C 1370.17 529.27 1318.43 487.41 1266.50 458.96 C 1217.43 432.07 1181.58 418.26 1126.00 404.84 C 1064.35 389.95 991.10 386.58 923.62 395.52 C 902.77 398.28 871.80 405.18 842.98 413.48 C 797.26 426.65 749.44 448.47 705.72 476.10 C 676.10 494.82 627.32 535.19 606.14 558.50 C 580.61 586.60 571.82 597.39 556.59 619.30 C 533.37 652.71 524.83 666.91 511.50 694.24 C 485.37 747.80 470.53 796.65 461.90 857.50 C 454.75 907.96 455.60 974.72 464.05 1024.65 C 470.58 1063.29 484.44 1111.81 497.00 1140.00 C 499.33 1145.22 502.78 1153.10 504.68 1157.50 C 513.63 1178.24 532.03 1211.65 546.13 1232.74 C 563.98 1259.45 579.70 1279.22 600.38 1300.99 C 614.20 1315.55 617.41 1319.52 616.53 1320.96 C 615.64 1322.39 614.96 1322.28 611.50 1320.13Z"/></g>
<g fill="#7B573BFC">
<path d="M 968.66 1091.26 C 964.63 1084.74 962.67 1048.32 965.34 1029.50 C 967.98 1010.88 975.12 990.73 986.25 970.50 C 995.95 952.90 1004.16 941.37 1006.14 942.59 C 1006.60 942.87 1006.73 942.46 1006.43 941.67 C 1006.12 940.86 1006.97 939.38 1008.41 938.25 C 1009.80 937.16 1010.72 936.06 1010.47 935.80 C 1010.22 935.55 1011.20 934.25 1012.67 932.92 C 1014.13 931.59 1014.96 931.13 1014.51 931.90 C 1013.96 932.85 1014.07 933.08 1014.85 932.60 C 1015.48 932.20 1016.00 931.15 1016.00 930.25 C 1016.00 927.80 1020.95 923.06 1022.86 923.67 C 1024.03 924.04 1024.14 923.93 1023.25 923.29 C 1022.33 922.62 1022.84 921.62 1025.25 919.39 C 1036.20 909.29 1050.38 899.00 1053.33 899.00 C 1054.43 899.00 1055.04 898.70 1054.67 898.34 C 1053.84 897.51 1070.45 887.88 1078.50 884.51 C 1094.72 877.74 1126.41 870.93 1141.00 871.08 L 1148.50 871.16 L 1137.00 873.52 C 1098.05 881.54 1074.16 893.37 1049.00 917.08 C 1045.42 920.45 1042.95 922.98 1043.50 922.70 C 1044.05 922.43 1048.33 919.87 1053.00 917.01 C 1067.95 907.88 1088.69 898.31 1101.50 894.64 C 1117.97 889.92 1126.98 888.68 1144.50 888.72 C 1160.46 888.75 1170.57 889.90 1183.50 893.17 C 1211.75 900.31 1238.96 902.28 1263.21 898.94 C 1267.45 898.36 1270.86 898.37 1272.46 898.98 C 1274.10 899.61 1275.00 899.61 1275.00 898.98 C 1275.00 898.44 1274.21 897.98 1273.25 897.96 C 1272.29 897.93 1276.69 896.19 1283.02 894.08 C 1289.36 891.97 1298.23 888.40 1302.72 886.14 C 1307.22 883.88 1311.14 882.42 1311.44 882.90 C 1311.92 883.69 1310.65 884.78 1306.10 887.48 C 1305.09 888.07 1304.92 887.94 1305.48 887.02 C 1306.01 886.17 1305.82 885.89 1304.89 886.20 C 1304.13 886.46 1303.50 887.30 1303.50 888.08 C 1303.49 888.87 1302.53 889.50 1301.34 889.50 C 1300.15 889.50 1298.82 889.86 1298.37 890.30 C 1297.93 890.74 1298.45 890.82 1299.53 890.47 C 1303.92 889.06 1297.46 893.17 1288.50 897.49 C 1269.91 906.45 1255.95 909.85 1234.50 910.66 C 1223.43 911.07 1216.23 910.78 1207.00 909.55 C 1148.12 901.70 1131.85 902.02 1107.00 911.50 C 1061.21 928.97 1029.40 966.31 1006.47 1029.50 C 1001.51 1043.19 998.78 1048.89 990.29 1063.28 C 981.38 1078.41 980.94 1078.24 983.47 1060.72 C 985.54 1046.43 989.03 1032.51 993.63 1020.20 C 997.93 1008.69 1007.75 988.77 1012.60 981.73 C 1016.85 975.54 1016.05 974.07 1011.37 979.50 C 1001.52 990.93 987.88 1014.80 982.93 1029.25 C 981.66 1032.96 980.23 1036.00 979.75 1036.00 C 979.27 1036.00 979.10 1036.35 979.36 1036.78 C 979.63 1037.21 978.80 1041.60 977.52 1046.53 C 975.64 1053.79 973.09 1075.70 972.98 1085.56 C 972.95 1088.05 969.49 1092.61 968.66 1091.26Z"/></g>
<g fill="#2A4866FD">
<path d="M 990.76 1299.03 C 979.56 1296.99 968.64 1291.61 960.50 1284.11 C 955.75 1279.73 950.96 1277.78 928.39 1271.00 C 889.54 1259.34 862.14 1255.22 817.50 1254.32 C 784.98 1253.67 765.46 1254.68 735.94 1258.53 C 701.54 1263.02 670.28 1270.73 644.07 1281.18 C 639.91 1282.84 634.25 1285.06 631.50 1286.10 L 626.50 1288.00 L 635.50 1279.44 C 645.91 1269.53 650.64 1266.99 669.50 1261.16 C 722.07 1244.91 754.43 1239.86 807.50 1239.62 C 842.95 1239.47 868.56 1242.16 901.00 1249.47 C 925.27 1254.94 960.80 1268.33 975.83 1277.68 C 985.03 1283.41 990.29 1285.00 999.98 1285.00 C 1009.66 1285.00 1016.47 1283.01 1026.22 1277.34 C 1045.51 1266.11 1077.73 1254.35 1103.58 1249.09 C 1142.66 1241.14 1182.34 1237.91 1215.90 1239.94 C 1259.67 1242.60 1280.28 1245.83 1311.50 1254.93 C 1348.43 1265.70 1357.79 1269.68 1369.50 1279.58 C 1374.64 1283.93 1378.74 1287.59 1378.61 1287.72 C 1378.49 1287.85 1368.06 1284.32 1355.44 1279.88 C 1321.24 1267.84 1294.91 1261.63 1256.00 1256.42 C 1239.90 1254.27 1192.12 1253.46 1168.63 1254.94 C 1128.58 1257.46 1107.25 1261.28 1069.53 1272.68 C 1048.80 1278.94 1045.41 1280.43 1039.52 1285.80 C 1033.21 1291.56 1026.20 1295.45 1018.57 1297.44 C 1011.29 1299.34 996.96 1300.16 990.76 1299.03Z"/></g>
<g fill="#2A4866FD">
<path d="M 1106.78 1504.76 C 1106.42 1500.20 1106.47 1439.51 1106.87 1390.75 L 1107.00 1375.00 L 1158.00 1375.00 L 1209.00 1375.00 L 1209.00 1384.44 C 1209.00 1390.48 1208.59 1394.14 1207.85 1394.59 C 1207.22 1394.98 1190.36 1395.36 1170.38 1395.42 C 1146.36 1395.50 1133.71 1395.89 1133.01 1396.59 C 1132.33 1397.27 1132.05 1403.66 1132.23 1414.57 L 1132.50 1431.50 L 1147.50 1431.52 C 1155.75 1431.54 1170.94 1431.65 1181.25 1431.77 L 1200.00 1432.00 L 1200.00 1442.00 L 1200.00 1452.00 L 1166.56 1452.00 C 1142.96 1452.00 1132.91 1452.33 1132.43 1453.12 C 1131.53 1454.56 1131.49 1487.82 1132.38 1488.71 C 1132.75 1489.08 1149.77 1489.34 1170.21 1489.29 C 1190.65 1489.23 1208.43 1489.59 1209.72 1490.08 C 1211.99 1490.95 1212.06 1491.31 1211.79 1500.24 L 1211.50 1509.50 L 1159.35 1509.76 L 1107.19 1510.02 L 1106.78 1504.76Z"/></g>
<g fill="#2A4866FD">
<path d="M 1282.60 1503.75 C 1279.80 1497.68 1268.13 1471.22 1261.55 1456.00 C 1256.20 1443.64 1238.19 1402.38 1232.40 1389.22 C 1229.43 1382.47 1227.00 1376.49 1227.00 1375.94 C 1227.00 1375.31 1231.89 1375.05 1240.21 1375.22 L 1253.42 1375.50 L 1256.17 1382.00 C 1257.68 1385.58 1260.69 1392.78 1262.85 1398.00 C 1266.37 1406.48 1275.97 1427.91 1292.75 1464.75 C 1295.82 1471.49 1298.65 1477.00 1299.04 1477.00 C 1300.38 1477.00 1301.74 1474.49 1308.00 1460.50 C 1311.44 1452.80 1318.28 1437.50 1323.19 1426.50 C 1328.11 1415.50 1334.87 1399.97 1338.22 1392.00 C 1341.56 1384.03 1344.74 1376.94 1345.27 1376.25 C 1345.95 1375.38 1349.71 1375.00 1357.62 1375.00 C 1367.17 1375.00 1369.00 1375.25 1369.00 1376.53 C 1369.00 1377.37 1362.21 1393.46 1353.91 1412.28 C 1345.61 1431.10 1332.51 1460.79 1324.80 1478.25 L 1310.78 1510.00 L 1298.13 1510.00 L 1285.48 1510.00 L 1282.60 1503.75Z"/></g>
<g fill="#7B573BFC">
<path d="M 965.97 969.75 C 953.68 950.34 943.59 939.60 927.50 928.81 C 922.55 925.49 918.17 922.26 917.77 921.63 C 917.36 921.01 917.02 920.81 917.02 921.18 C 917.01 921.56 913.14 919.90 908.43 917.49 C 900.00 913.19 886.83 908.46 876.00 905.83 C 872.27 904.93 863.73 904.52 849.50 904.55 C 830.62 904.60 826.43 904.94 808.00 907.93 C 788.39 911.12 786.69 911.24 769.00 910.67 C 749.92 910.05 745.70 909.49 733.82 905.95 C 727.99 904.21 727.05 903.64 728.05 902.44 C 729.03 901.26 728.85 901.00 727.06 901.00 C 725.65 901.00 725.14 901.41 725.61 902.17 C 726.10 902.97 725.77 903.13 724.58 902.67 C 723.62 902.30 722.62 902.00 722.36 902.00 C 722.10 902.00 722.21 901.47 722.61 900.83 C 723.09 900.04 722.78 899.87 721.65 900.30 C 719.80 901.01 715.00 899.20 715.00 897.78 C 715.00 897.29 714.64 897.10 714.20 897.38 C 713.76 897.65 712.75 897.45 711.95 896.95 C 711.14 896.43 711.00 896.02 711.64 896.02 C 712.27 896.01 713.00 895.44 713.26 894.75 C 713.57 893.94 712.70 893.46 710.76 893.39 C 709.13 893.33 707.47 892.76 707.08 892.13 C 706.69 891.51 705.26 891.08 703.89 891.20 C 702.29 891.33 698.66 889.50 693.67 886.05 C 689.42 883.11 685.77 880.43 685.56 880.10 C 685.35 879.76 689.83 881.82 695.52 884.67 C 701.21 887.52 708.37 890.64 711.43 891.61 C 714.49 892.58 717.00 893.96 717.00 894.68 C 717.00 895.41 717.51 896.00 718.12 896.00 C 718.90 896.00 718.86 896.46 718.00 897.50 C 717.14 898.54 717.10 899.00 717.88 899.00 C 718.49 899.00 719.00 898.49 719.00 897.88 C 719.00 897.15 720.10 896.97 722.05 897.36 C 724.22 897.79 724.89 897.64 724.39 896.82 C 723.90 896.03 724.24 895.88 725.46 896.35 C 728.73 897.60 743.37 899.81 753.00 900.51 C 768.75 901.64 806.77 897.16 817.81 892.86 C 827.05 889.26 855.46 887.15 871.00 888.91 C 891.23 891.21 904.81 895.17 925.35 904.79 C 933.19 908.46 934.83 909.57 933.35 910.22 C 931.87 910.88 931.97 910.95 933.87 910.58 C 936.10 910.15 941.04 912.45 955.30 920.51 C 957.94 922.01 960.34 922.99 960.64 922.70 C 960.93 922.40 960.17 921.62 958.94 920.97 C 955.12 918.92 947.99 911.82 948.67 910.73 C 949.02 910.16 948.88 909.96 948.35 910.28 C 947.83 910.61 945.43 909.31 943.03 907.41 C 940.62 905.51 937.16 903.02 935.32 901.89 C 933.49 900.76 932.28 899.35 932.65 898.76 C 933.02 898.17 932.84 897.98 932.26 898.34 C 931.68 898.70 927.68 896.97 923.35 894.50 C 919.03 892.03 911.45 888.24 906.50 886.06 C 897.69 882.19 867.66 873.00 863.82 873.00 C 862.66 873.00 862.16 872.56 862.56 871.90 C 863.40 870.55 872.25 871.36 886.50 874.07 C 899.55 876.56 911.67 880.11 922.30 884.56 C 929.07 887.39 930.77 888.50 930.35 889.82 C 929.93 891.14 930.02 891.20 930.79 890.13 C 931.61 888.98 932.29 889.06 934.87 890.58 C 937.10 891.90 937.62 892.65 936.73 893.30 C 935.91 893.89 936.11 893.99 937.33 893.59 C 940.08 892.70 954.64 901.24 966.36 910.61 C 977.85 919.80 995.00 936.96 995.00 939.26 C 995.00 940.10 992.34 944.80 989.09 949.70 C 985.84 954.60 980.85 962.97 978.00 968.30 C 975.15 973.64 972.46 978.00 972.01 978.00 C 971.57 978.00 968.85 974.29 965.97 969.75Z"/></g>
<g fill="#99A657FC">
<path d="M 1010.22 1270.95 C 1013.61 1264.92 1022.83 1254.00 1024.52 1254.00 C 1025.33 1254.00 1026.00 1253.52 1026.00 1252.94 C 1026.00 1252.36 1025.44 1252.21 1024.75 1252.61 C 1024.06 1253.01 1024.35 1252.38 1025.38 1251.20 C 1026.42 1250.01 1027.73 1249.33 1028.29 1249.68 C 1028.85 1250.03 1029.02 1249.84 1028.66 1249.26 C 1027.89 1248.01 1033.07 1243.19 1042.27 1236.63 C 1049.45 1231.51 1051.37 1229.12 1050.39 1226.57 C 1049.71 1224.80 1052.51 1224.41 1054.93 1225.94 C 1055.90 1226.55 1057.91 1226.06 1061.10 1224.45 C 1072.12 1218.86 1096.19 1210.43 1109.36 1207.54 C 1110.97 1207.18 1112.43 1206.09 1112.70 1205.02 C 1113.12 1203.44 1113.58 1203.31 1115.50 1204.18 C 1117.12 1204.92 1120.74 1204.90 1127.65 1204.13 C 1133.07 1203.52 1145.60 1202.52 1155.50 1201.90 C 1165.40 1201.27 1174.15 1200.41 1174.95 1199.98 C 1175.74 1199.55 1177.32 1199.55 1178.45 1199.97 C 1179.58 1200.39 1187.47 1201.05 1196.00 1201.43 C 1230.31 1202.96 1256.35 1206.05 1281.18 1211.54 C 1293.89 1214.35 1294.00 1214.36 1294.00 1212.95 C 1294.00 1211.47 1285.13 1198.46 1275.07 1185.18 C 1259.28 1164.32 1248.12 1148.61 1248.58 1147.86 C 1248.84 1147.46 1248.25 1146.66 1247.27 1146.09 C 1246.30 1145.52 1245.98 1145.05 1246.56 1145.03 C 1248.04 1144.99 1271.26 1170.72 1289.00 1192.07 C 1292.03 1195.71 1299.94 1205.17 1306.59 1213.09 C 1319.52 1228.52 1322.82 1233.00 1321.23 1233.00 C 1320.67 1233.00 1315.91 1232.11 1310.64 1231.03 C 1275.56 1223.81 1249.01 1220.94 1211.36 1220.28 C 1187.30 1219.86 1177.80 1220.10 1164.36 1221.45 C 1144.49 1223.45 1123.29 1226.90 1108.28 1230.56 C 1081.09 1237.21 1039.25 1255.05 1019.69 1268.33 C 1014.29 1272.00 1009.44 1275.00 1008.91 1275.00 C 1008.38 1275.00 1008.97 1273.18 1010.22 1270.95Z"/></g>
<g fill="#99A657FC">
<path d="M 981.50 1267.89 C 965.50 1257.33 937.55 1244.06 917.89 1237.69 C 908.21 1234.56 896.95 1231.14 892.87 1230.10 C 883.31 1227.65 858.09 1223.43 841.51 1221.51 C 823.87 1219.46 773.65 1219.46 753.23 1221.51 C 736.91 1223.15 707.37 1227.70 691.63 1231.01 C 686.21 1232.15 681.41 1232.96 680.97 1232.79 C 680.08 1232.46 693.85 1214.64 706.70 1199.50 C 731.44 1170.35 736.23 1164.83 744.40 1156.06 C 749.29 1150.80 754.22 1145.85 755.35 1145.05 C 757.27 1143.70 757.25 1143.87 755.04 1147.55 C 753.73 1149.72 748.59 1156.90 743.62 1163.50 C 738.65 1170.10 731.19 1180.02 727.04 1185.53 C 722.89 1191.05 717.07 1199.29 714.09 1203.83 C 707.42 1214.02 707.85 1215.08 717.72 1212.72 C 735.51 1208.46 766.99 1203.95 788.82 1202.52 C 821.98 1200.36 823.79 1200.18 826.08 1198.96 C 827.70 1198.09 828.54 1198.17 829.83 1199.30 C 831.03 1200.34 835.47 1200.96 845.50 1201.45 C 853.20 1201.84 865.12 1202.80 871.98 1203.59 C 884.11 1204.99 884.54 1204.98 887.19 1203.02 C 890.64 1200.47 891.35 1200.47 889.99 1203.02 C 888.47 1205.87 889.27 1206.63 895.25 1208.02 C 904.98 1210.28 922.42 1216.22 933.69 1221.13 C 945.42 1226.23 946.48 1226.58 945.54 1225.07 C 945.23 1224.56 945.42 1223.86 945.98 1223.51 C 946.54 1223.16 947.00 1223.77 947.00 1224.86 C 947.00 1226.87 948.14 1227.92 957.83 1234.93 C 970.46 1244.06 981.99 1256.40 989.78 1269.12 C 993.79 1275.65 993.11 1275.55 981.50 1267.89Z"/></g>
<g fill="#2A4866FD">
<path d="M 984.00 1486.75 C 983.99 1473.96 983.70 1446.17 983.34 1425.00 C 982.99 1403.83 983.02 1383.90 983.42 1380.72 L 984.15 1374.94 L 995.83 1375.22 L 1007.50 1375.50 L 1008.00 1432.50 L 1008.50 1489.50 L 1045.39 1489.76 L 1082.29 1490.02 L 1081.65 1496.76 C 1081.30 1500.47 1081.01 1504.96 1081.01 1506.75 L 1081.00 1510.00 L 1032.50 1510.00 L 984.00 1510.00 L 984.00 1486.75Z"/></g>
<g fill="#99A657FC">
<path d="M 750.04 821.94 C 745.94 820.86 742.17 819.57 741.67 819.07 C 738.31 815.71 757.44 793.82 768.10 788.80 C 777.61 784.33 783.63 783.00 794.44 783.00 C 805.06 783.00 810.06 783.92 812.46 786.31 C 813.72 787.58 813.31 787.99 809.20 789.53 C 804.46 791.31 789.06 797.90 783.50 800.52 L 780.50 801.94 L 783.50 801.49 C 789.49 800.60 792.71 799.74 804.44 795.93 C 811.01 793.80 816.59 792.26 816.84 792.51 C 817.09 792.76 816.04 794.86 814.50 797.18 C 800.30 818.64 774.82 828.43 750.04 821.94Z"/></g>
<g fill="#99A657FC">
<path d="M 1221.25 822.48 C 1212.49 820.58 1205.57 816.58 1197.92 809.01 C 1191.99 803.14 1185.14 793.53 1186.16 792.51 C 1186.38 792.29 1193.97 794.56 1203.03 797.55 C 1218.90 802.79 1227.29 804.66 1220.50 801.46 C 1206.19 794.70 1193.10 788.64 1191.19 787.90 C 1181.80 784.25 1208.74 781.25 1221.54 784.52 C 1232.00 787.19 1239.07 791.36 1247.69 799.94 C 1256.26 808.46 1262.33 818.07 1260.38 820.02 C 1258.68 821.72 1244.40 823.94 1235.50 823.89 C 1231.10 823.86 1224.69 823.23 1221.25 822.48Z"/></g>
<g fill="#7B573BFC">
<path d="M 993.17 742.01 C 988.64 740.94 983.11 736.28 979.53 730.52 C 975.49 724.03 974.81 714.48 977.89 707.51 C 980.28 702.10 980.54 700.00 978.80 700.00 C 978.14 700.00 971.97 702.77 965.10 706.16 C 955.65 710.82 951.19 713.69 946.80 717.96 C 943.61 721.06 941.00 723.26 941.00 722.85 C 941.00 721.68 950.40 710.69 953.96 707.69 C 955.72 706.20 957.65 705.28 958.24 705.65 C 958.83 706.01 959.02 705.84 958.67 705.27 C 957.80 703.86 967.10 697.61 974.51 694.61 C 981.61 691.74 994.18 689.00 1000.21 689.01 C 1010.21 689.03 1030.00 694.44 1030.00 697.17 C 1030.00 697.69 1030.38 697.88 1030.85 697.59 C 1031.32 697.30 1033.84 698.42 1036.45 700.07 C 1040.23 702.47 1040.95 703.35 1040.04 704.45 C 1039.24 705.42 1039.22 706.02 1039.98 706.49 C 1040.57 706.85 1040.93 706.55 1040.77 705.82 C 1040.15 702.84 1043.48 704.91 1050.54 711.91 C 1054.65 715.98 1057.79 719.54 1057.52 719.81 C 1056.84 720.49 1046.46 710.69 1046.78 709.68 C 1046.93 709.22 1046.59 709.14 1046.03 709.48 C 1045.46 709.83 1042.41 708.77 1039.25 707.13 C 1028.55 701.56 1019.74 698.51 1010.89 697.31 C 1007.85 696.89 1006.95 697.24 1005.14 699.54 C 1003.96 701.04 1003.00 702.83 1003.00 703.52 C 1003.00 704.24 1001.09 705.06 998.54 705.44 C 991.10 706.56 986.68 713.47 988.97 720.41 C 990.79 725.93 995.16 729.00 1001.21 729.00 C 1005.71 729.00 1006.63 728.61 1009.63 725.43 C 1011.89 723.03 1013.00 720.88 1013.00 718.90 C 1013.00 717.23 1013.64 715.69 1014.46 715.38 C 1015.26 715.07 1017.03 712.57 1018.40 709.82 L 1020.90 704.82 L 1022.51 708.66 C 1026.90 719.07 1025.29 728.01 1017.65 735.64 C 1010.78 742.50 1003.39 744.42 993.17 742.01Z"/></g>
<g fill="#99A657FC">
<path d="M 1342.00 873.07 C 1340.62 872.59 1340.17 872.15 1341.00 872.08 C 1342.19 871.99 1342.23 871.80 1341.19 871.14 C 1340.25 870.54 1341.69 869.11 1346.19 866.16 C 1349.66 863.89 1354.99 860.11 1358.04 857.76 C 1361.08 855.42 1364.68 852.73 1366.04 851.79 C 1371.62 847.91 1357.34 853.83 1347.76 859.37 C 1342.40 862.47 1337.84 865.00 1337.62 865.00 C 1337.39 865.00 1336.94 864.28 1336.60 863.39 C 1335.59 860.76 1341.83 851.04 1349.43 843.42 C 1360.86 831.96 1373.46 827.00 1391.13 827.00 C 1402.16 827.00 1404.00 827.44 1404.00 830.10 C 1404.00 833.78 1397.99 844.61 1391.36 852.89 C 1383.63 862.53 1376.06 867.97 1366.07 871.06 C 1358.76 873.32 1345.85 874.40 1342.00 873.07Z"/></g>
<g fill="#99A657FC">
<path d="M 638.62 871.89 C 625.78 868.87 612.97 858.70 605.21 845.38 C 601.05 838.23 598.03 829.63 599.26 828.41 C 599.62 828.05 603.87 827.54 608.71 827.27 C 628.12 826.22 647.80 835.33 659.09 850.63 C 662.95 855.84 666.86 865.03 665.20 864.98 C 664.82 864.96 661.58 863.36 658.00 861.42 C 650.30 857.24 637.87 851.80 637.30 852.36 C 637.09 852.58 639.74 854.62 643.20 856.90 C 646.67 859.17 651.34 862.49 653.59 864.27 C 655.84 866.05 658.99 868.53 660.59 869.80 C 662.19 871.06 662.94 871.82 662.25 871.49 C 661.56 871.15 661.00 871.36 661.00 871.94 C 661.00 873.25 644.23 873.21 638.62 871.89Z"/></g>
<g fill="#99A657FC">
<path d="M 926.36 663.25 C 926.62 662.84 930.46 656.65 934.90 649.50 C 939.33 642.35 943.64 635.62 944.48 634.55 C 947.43 630.75 945.95 630.79 941.73 634.62 C 939.38 636.75 934.64 642.23 931.19 646.78 C 927.74 651.34 924.50 654.81 923.99 654.49 C 923.48 654.18 922.77 655.06 922.42 656.46 C 921.23 661.20 920.26 659.03 920.10 651.25 C 919.83 638.43 924.65 627.07 934.47 617.43 C 942.09 609.95 950.35 604.86 959.36 602.10 C 970.80 598.60 970.40 598.28 969.72 610.25 C 968.42 633.18 957.11 651.16 938.35 660.11 C 930.96 663.64 925.15 665.16 926.36 663.25Z"/></g>
<g fill="#99A657FC">
<path d="M 1066.45 660.69 C 1053.04 655.37 1048.55 651.74 1041.13 640.15 C 1035.55 631.43 1033.13 624.43 1032.04 613.84 C 1030.84 602.31 1031.64 599.79 1036.22 600.68 C 1047.37 602.85 1057.65 608.67 1067.21 618.22 C 1076.34 627.33 1082.00 640.73 1082.00 653.21 C 1082.00 659.25 1081.18 660.28 1078.87 657.13 C 1073.51 649.82 1058.67 633.00 1057.58 633.00 C 1057.06 633.00 1072.38 657.54 1074.44 660.00 C 1078.55 664.91 1077.37 665.01 1066.45 660.69Z"/></g>
<g fill="#99A657FC">
<path d="M 1236.38 618.12 C 1239.58 614.89 1242.71 611.32 1243.35 610.19 C 1243.98 609.06 1247.15 605.17 1250.39 601.55 C 1253.63 597.92 1256.06 594.73 1255.79 594.46 C 1255.52 594.18 1252.42 596.54 1248.90 599.69 C 1239.27 608.31 1239.03 608.50 1237.72 608.55 C 1237.05 608.57 1236.58 609.05 1236.69 609.61 C 1236.79 610.17 1235.07 612.62 1232.87 615.06 C 1230.67 617.50 1229.16 618.92 1229.52 618.21 C 1229.88 617.49 1229.72 616.36 1229.16 615.70 C 1226.30 612.24 1236.66 587.43 1240.08 589.55 C 1240.59 589.86 1241.00 589.25 1241.00 588.18 C 1241.00 585.30 1251.29 577.26 1260.50 572.95 C 1268.74 569.10 1276.51 567.00 1282.55 567.00 C 1285.79 567.00 1286.00 567.20 1286.00 570.33 C 1286.00 574.47 1282.87 584.19 1278.45 593.79 C 1274.30 602.80 1265.31 612.49 1256.97 616.93 C 1248.70 621.34 1240.49 624.00 1235.12 624.00 L 1230.56 624.00 L 1236.38 618.12Z"/></g>
<g fill="#99A657FC">
<path d="M 759.64 623.56 C 756.96 622.84 754.49 621.86 754.14 621.38 C 753.79 620.89 752.94 620.46 752.25 620.40 C 749.35 620.17 748.91 619.95 749.49 619.01 C 749.84 618.45 749.44 618.28 748.56 618.62 C 747.65 618.96 746.76 618.55 746.40 617.61 C 746.07 616.73 745.38 616.26 744.89 616.57 C 744.39 616.88 743.72 616.43 743.39 615.57 C 743.06 614.71 742.38 614.26 741.89 614.57 C 741.39 614.88 738.24 612.51 734.90 609.32 C 730.24 604.88 727.79 601.39 724.46 594.51 C 719.93 585.11 717.00 575.48 717.00 569.99 L 717.00 566.77 L 721.75 567.45 C 728.68 568.44 739.76 571.85 745.50 574.76 C 759.33 581.75 772.68 600.67 773.74 614.77 C 774.29 622.17 774.41 622.19 768.23 613.95 C 764.09 608.43 751.40 597.27 750.40 598.27 C 750.11 598.55 754.40 604.41 759.94 611.28 C 765.47 618.15 770.00 624.04 770.00 624.38 C 770.00 625.38 764.89 624.97 759.64 623.56Z"/></g>
<g fill="#99A657FC">
<path d="M 1120.17 612.25 C 1120.36 611.84 1121.83 609.02 1123.43 606.00 C 1128.28 596.87 1134.96 583.00 1134.51 583.00 C 1133.84 583.00 1122.59 598.03 1119.28 603.36 C 1117.07 606.92 1116.03 607.87 1115.42 606.87 C 1114.80 605.86 1114.41 606.15 1113.89 608.01 C 1112.46 613.16 1113.07 595.33 1114.54 589.09 C 1118.44 572.56 1127.59 560.98 1142.38 553.89 C 1147.05 551.64 1152.34 549.74 1154.12 549.65 C 1157.13 549.51 1157.43 549.79 1158.26 553.50 C 1160.19 562.16 1157.38 577.48 1151.92 588.00 C 1148.21 595.16 1145.00 598.72 1136.70 604.92 C 1130.16 609.80 1127.08 611.29 1128.60 608.85 C 1129.04 608.12 1128.87 607.96 1128.14 608.41 C 1127.49 608.81 1127.20 609.51 1127.48 609.96 C 1128.09 610.96 1125.17 612.23 1123.98 611.49 C 1123.52 611.20 1122.86 611.42 1122.51 611.98 C 1121.79 613.15 1119.66 613.39 1120.17 612.25Z"/></g>
<g fill="#99A657FC">
<path d="M 1033.13 515.17 C 1034.35 513.15 1037.21 508.35 1039.47 504.50 C 1041.74 500.65 1044.58 495.93 1045.79 494.00 C 1051.63 484.71 1046.30 489.67 1033.50 505.43 L 1025.50 515.27 L 1025.20 509.04 C 1024.63 497.13 1027.69 488.45 1036.52 476.97 C 1043.15 468.36 1051.55 462.71 1065.64 457.41 C 1069.94 455.79 1072.13 455.39 1072.59 456.14 C 1074.07 458.54 1073.21 472.70 1071.11 480.32 C 1068.35 490.41 1066.20 494.51 1059.95 501.67 C 1053.13 509.48 1040.18 517.64 1033.20 518.54 L 1030.90 518.83 L 1033.13 515.17Z"/></g>
<g fill="#99A657FC">
<path d="M 662.81 717.60 C 649.99 713.07 636.98 702.48 632.02 692.55 C 630.25 689.00 630.21 688.43 631.58 686.92 C 634.23 683.99 641.86 682.50 654.00 682.54 C 663.60 682.58 666.41 682.96 671.00 684.85 C 679.78 688.46 686.18 691.97 690.75 695.68 C 695.51 699.54 701.46 707.60 700.16 708.40 C 699.15 709.02 685.40 705.82 679.00 703.47 C 676.52 702.56 673.22 701.43 671.67 700.95 C 666.64 699.43 670.41 702.47 677.26 705.47 C 680.69 706.97 685.30 709.02 687.50 710.03 C 689.70 711.03 693.30 712.59 695.50 713.49 L 699.50 715.13 L 697.01 716.48 C 695.64 717.22 694.20 717.62 693.79 717.37 C 693.39 717.12 691.72 717.61 690.08 718.46 C 685.27 720.95 671.02 720.50 662.81 717.60Z"/></g>
<g fill="#99A657FC">
<path d="M 963.50 517.10 C 952.80 513.20 945.88 507.78 938.50 497.50 C 932.51 489.15 929.74 479.53 929.61 466.59 L 929.50 456.50 L 933.00 456.59 C 934.92 456.65 940.10 458.44 944.50 460.57 C 955.36 465.84 966.16 476.49 971.34 487.02 C 975.26 495.00 977.90 508.29 976.59 513.49 C 975.91 516.22 975.90 516.21 971.70 510.70 C 967.16 504.72 956.47 491.43 954.25 489.00 C 953.08 487.72 953.04 487.92 953.97 490.38 C 954.56 491.96 955.88 494.44 956.90 495.88 C 957.91 497.32 960.13 501.20 961.83 504.50 C 963.52 507.80 966.08 512.41 967.51 514.75 C 970.45 519.56 970.37 519.61 963.50 517.10Z"/></g>
<g fill="#99A657FC">
<path d="M 874.00 610.40 C 868.15 607.06 858.42 599.00 858.77 597.79 C 858.93 597.28 858.63 597.11 858.12 597.43 C 856.80 598.24 848.26 584.55 846.34 578.53 C 844.61 573.10 843.36 554.69 844.44 550.40 C 845.02 548.06 845.45 547.84 848.30 548.38 C 850.06 548.72 855.12 550.77 859.55 552.94 C 872.90 559.50 881.93 570.47 885.94 584.98 C 888.07 592.72 888.82 608.37 887.11 609.43 C 886.62 609.74 883.64 605.73 880.49 600.52 C 874.26 590.23 868.11 582.56 868.04 585.00 C 868.02 585.83 869.48 588.98 871.29 592.00 C 874.78 597.84 879.26 607.02 880.43 610.75 C 881.37 613.75 879.69 613.66 874.00 610.40Z"/></g>
<g fill="#99A657FC">
<path d="M 1315.55 720.33 C 1313.92 720.05 1312.12 719.25 1311.55 718.53 C 1310.97 717.82 1309.20 716.94 1307.61 716.56 C 1304.16 715.76 1304.83 715.02 1311.56 712.22 C 1321.75 707.97 1331.85 703.06 1332.47 702.04 C 1333.46 700.45 1331.05 700.79 1325.00 703.11 C 1321.97 704.27 1316.12 706.24 1312.00 707.49 C 1305.60 709.42 1304.38 709.54 1303.66 708.31 C 1301.54 704.64 1313.26 693.16 1324.50 687.88 C 1334.34 683.26 1342.29 681.66 1352.00 682.34 C 1361.76 683.02 1366.91 684.30 1370.04 686.83 L 1372.24 688.61 L 1370.12 692.76 C 1365.37 702.07 1352.02 712.82 1339.20 717.66 C 1332.54 720.17 1321.79 721.38 1315.55 720.33Z"/></g>
<g fill="#99A657FC">
<path d="M 1289.40 958.51 C 1280.67 956.61 1273.49 952.63 1266.24 945.68 C 1260.37 940.04 1253.13 929.54 1254.30 928.37 C 1255.00 927.66 1266.39 931.27 1274.92 934.90 C 1278.81 936.55 1283.68 938.21 1285.75 938.58 C 1288.44 939.06 1285.91 937.40 1276.81 932.72 C 1261.88 925.05 1259.31 923.41 1261.18 922.74 C 1261.91 922.49 1262.17 921.92 1261.77 921.49 C 1261.37 921.07 1260.25 921.32 1259.27 922.05 C 1257.58 923.33 1257.58 923.31 1259.26 921.47 C 1261.86 918.63 1276.89 918.79 1286.55 921.77 C 1298.95 925.58 1315.74 939.64 1321.09 950.68 C 1323.88 956.44 1322.91 957.47 1313.43 958.88 C 1303.92 960.30 1297.12 960.19 1289.40 958.51Z"/></g>
<g fill="#99A657FC">
<path d="M 904.82 864.08 C 898.16 861.47 886.66 853.59 882.60 848.85 C 874.32 839.17 869.32 825.38 868.88 811.00 L 868.65 803.50 L 873.12 803.20 C 880.28 802.73 891.99 809.13 900.53 818.17 C 909.58 827.77 913.75 836.70 915.22 849.64 C 915.89 855.53 915.94 859.46 915.36 860.04 C 914.77 860.63 910.52 855.70 904.10 846.99 C 898.42 839.30 893.34 833.00 892.79 833.00 C 892.25 833.00 892.82 834.69 894.07 836.75 C 895.32 838.81 898.21 843.92 900.50 848.10 C 902.78 852.28 905.57 857.01 906.70 858.60 C 908.54 861.23 910.60 866.07 909.82 865.95 C 909.64 865.93 907.39 865.08 904.82 864.08Z"/></g>
<g fill="#99A657FC">
<path d="M 687.73 958.59 C 679.40 956.80 678.95 956.02 682.40 949.43 C 685.88 942.78 694.53 933.63 702.00 928.69 C 710.92 922.79 718.00 920.71 729.00 920.74 C 734.23 920.76 739.83 921.19 741.45 921.69 C 744.70 922.71 745.81 921.96 721.50 935.15 C 717.65 937.24 715.17 938.96 716.00 938.97 C 717.54 938.98 736.47 932.45 743.36 929.52 C 745.48 928.62 747.37 928.04 747.57 928.23 C 748.61 929.27 742.37 939.78 737.92 944.49 C 727.56 955.44 716.86 960.06 702.16 959.92 C 697.40 959.87 690.90 959.27 687.73 958.59Z"/></g>
<g fill="#99A657FC">
<path d="M 826.00 962.89 C 826.00 960.08 829.40 949.15 831.66 944.69 C 836.43 935.26 850.42 922.92 860.77 919.00 C 866.60 916.79 880.47 915.34 881.40 916.84 C 881.76 917.41 879.41 920.05 876.19 922.69 C 872.96 925.34 867.56 929.75 864.18 932.50 C 860.80 935.25 858.45 937.64 858.95 937.81 C 859.44 937.98 864.27 935.12 869.68 931.45 C 875.08 927.79 881.23 923.91 883.34 922.83 L 887.19 920.86 L 886.50 924.18 C 884.84 932.13 879.18 941.59 872.03 948.33 C 863.81 956.09 855.81 960.44 845.94 962.51 C 837.52 964.28 826.00 964.50 826.00 962.89Z"/></g>
<g fill="#99A657FC">
<path d="M 1157.50 962.84 C 1150.04 961.44 1137.25 954.82 1130.78 949.02 C 1126.40 945.09 1123.99 941.75 1120.47 934.73 C 1117.95 929.69 1116.09 924.76 1116.35 923.78 C 1116.60 922.80 1116.41 922.25 1115.91 922.56 C 1115.41 922.87 1115.00 922.40 1115.00 921.52 C 1115.00 919.46 1115.90 919.94 1132.29 930.78 C 1139.33 935.44 1145.26 939.08 1145.46 938.87 C 1145.83 938.50 1137.64 931.36 1125.10 921.11 L 1118.50 915.73 L 1127.50 916.30 C 1132.45 916.62 1138.08 917.43 1140.00 918.09 C 1145.60 920.03 1156.14 927.24 1161.94 933.10 C 1168.10 939.32 1174.95 952.42 1175.75 959.50 L 1176.26 964.00 L 1169.38 963.89 C 1165.60 963.83 1160.25 963.35 1157.50 962.84Z"/></g>
<g fill="#99A657FC">
<path d="M 1303.00 687.16 C 1303.00 686.72 1304.69 683.01 1306.76 678.93 C 1312.38 667.81 1316.17 659.02 1315.81 657.94 C 1315.46 656.88 1306.82 668.20 1303.19 674.50 C 1301.92 676.70 1301.12 677.71 1301.41 676.75 C 1301.70 675.79 1301.51 675.00 1300.98 675.00 C 1300.45 675.00 1299.75 676.69 1299.42 678.76 C 1298.79 682.69 1296.45 686.79 1295.42 685.76 C 1295.09 685.43 1294.58 682.48 1294.28 679.20 C 1293.15 666.72 1300.37 646.92 1309.19 638.29 C 1315.58 632.05 1328.64 624.87 1332.96 625.22 C 1335.68 625.44 1336.57 626.03 1337.11 628.00 C 1339.13 635.32 1337.03 653.62 1333.17 662.35 C 1331.03 667.19 1322.58 677.04 1317.02 681.18 C 1313.03 684.15 1303.00 688.43 1303.00 687.16Z"/></g>
<g fill="#99A657FC">
<path d="M 1094.03 862.43 C 1094.56 861.02 1096.08 858.43 1097.39 856.68 C 1100.47 852.59 1109.29 834.96 1108.60 834.27 C 1107.70 833.37 1095.86 848.60 1091.32 856.50 C 1089.62 859.46 1089.00 859.98 1088.94 858.50 L 1088.86 856.50 L 1088.00 858.50 C 1087.44 859.81 1087.12 857.22 1087.09 851.00 C 1087.04 839.62 1089.11 833.60 1096.32 824.23 C 1104.61 813.46 1113.95 807.08 1126.10 803.88 C 1133.80 801.85 1134.40 802.57 1133.67 812.93 C 1132.56 828.54 1126.35 841.61 1114.89 852.45 C 1108.88 858.14 1097.65 865.00 1094.37 865.00 C 1093.37 865.00 1093.28 864.38 1094.03 862.43Z"/></g>
<g fill="#99A657FC">
<path d="M 692.00 685.31 C 678.96 677.96 668.81 664.97 666.12 652.20 C 664.79 645.91 664.65 628.09 665.92 626.10 C 667.25 623.99 673.33 625.36 679.76 629.21 C 695.68 638.74 705.14 653.16 708.13 672.42 C 709.18 679.15 708.14 687.01 706.21 686.99 C 705.82 686.99 703.74 683.73 701.59 679.74 C 697.56 672.29 688.87 659.80 688.19 660.48 C 687.55 661.11 690.04 667.96 694.13 676.86 C 696.25 681.46 697.72 685.64 697.41 686.14 C 697.10 686.64 697.39 686.93 698.05 686.77 C 698.71 686.62 699.46 687.06 699.71 687.75 C 700.42 689.70 699.00 689.25 692.00 685.31Z"/></g>
<g fill="#99A657FC">
<path d="M 1317.25 770.88 C 1315.46 770.37 1314.00 769.74 1314.00 769.48 C 1314.00 769.23 1318.16 766.95 1323.25 764.41 C 1336.76 757.69 1344.86 752.00 1340.92 752.00 C 1340.33 752.00 1333.36 754.67 1325.42 757.93 C 1316.16 761.74 1311.00 763.41 1311.00 762.59 C 1311.00 760.00 1318.79 749.36 1323.57 745.43 C 1334.24 736.64 1343.01 733.15 1356.61 732.30 C 1364.22 731.82 1366.91 732.08 1372.86 733.89 C 1376.79 735.08 1380.00 736.29 1380.00 736.58 C 1380.00 738.16 1376.08 744.33 1371.27 750.32 C 1365.59 757.41 1356.97 763.71 1347.50 767.71 C 1338.26 771.61 1324.70 773.03 1317.25 770.88Z"/></g>
<g fill="#99A657FC">
<path d="M 1297.09 870.25 C 1297.66 868.74 1300.09 863.90 1302.48 859.50 C 1304.87 855.10 1307.78 849.10 1308.94 846.16 C 1312.35 837.51 1309.16 840.50 1302.82 851.91 C 1297.05 862.26 1291.13 870.91 1289.75 870.97 C 1288.38 871.03 1288.97 853.52 1290.54 847.50 C 1294.44 832.54 1306.28 817.66 1319.24 811.45 C 1323.20 809.55 1327.24 808.00 1328.20 808.00 C 1330.67 808.00 1331.51 811.85 1331.46 823.00 C 1331.42 830.77 1330.92 833.87 1328.69 840.00 C 1323.41 854.53 1312.83 866.04 1299.77 871.46 L 1296.05 873.01 L 1297.09 870.25Z"/></g>
<g fill="#99A657FC">
<path d="M 700.50 870.81 C 684.41 862.37 673.30 845.94 670.97 827.13 C 670.11 820.20 670.82 809.85 672.25 808.41 C 673.38 807.29 680.88 810.12 686.59 813.83 C 698.53 821.58 709.02 835.89 712.59 849.31 C 714.03 854.69 714.31 865.69 713.12 869.94 C 712.49 872.20 712.09 871.86 707.88 865.44 C 705.38 861.62 701.39 854.90 699.01 850.50 C 689.27 832.45 689.64 837.63 699.52 857.64 C 707.74 874.31 707.77 874.63 700.50 870.81Z"/></g>
<g fill="#99A657FC">
<path d="M 657.34 768.93 C 648.17 766.03 641.03 760.67 633.05 750.72 C 629.19 745.89 625.34 740.62 624.51 739.01 C 623.10 736.29 623.13 736.00 624.91 735.05 C 629.56 732.56 640.76 731.57 649.74 732.84 C 662.63 734.68 672.34 739.49 680.30 747.98 C 683.71 751.62 687.54 756.49 688.81 758.80 C 691.10 762.95 691.11 763.00 689.07 763.00 C 687.94 763.00 683.98 761.68 680.26 760.06 C 670.03 755.61 660.64 752.03 660.25 752.42 C 659.72 752.95 665.22 756.12 677.75 762.54 C 683.94 765.71 689.00 768.62 689.00 769.02 C 689.00 771.71 665.88 771.64 657.34 768.93Z"/></g>
<g fill="#99A657FC">
<path d="M 1216.69 588.31 C 1215.69 586.68 1214.00 575.49 1214.02 570.57 C 1214.04 565.18 1216.81 553.12 1218.99 548.98 C 1225.03 537.48 1240.16 524.00 1247.02 524.00 C 1250.44 524.00 1252.25 529.96 1252.17 541.00 C 1252.06 555.90 1247.83 567.75 1238.94 578.05 C 1234.31 583.42 1224.00 590.29 1224.00 588.01 C 1224.00 587.39 1225.30 583.85 1226.88 580.13 C 1229.82 573.21 1232.05 564.63 1231.93 560.70 C 1231.87 558.60 1231.82 558.61 1230.77 561.00 C 1230.16 562.38 1227.49 568.10 1224.83 573.73 C 1222.18 579.36 1219.99 584.31 1219.97 584.73 C 1219.91 586.16 1217.20 589.13 1216.69 588.31Z"/></g>
<g fill="#99A657FC">
<path d="M 755.00 966.21 C 755.00 962.30 757.63 952.66 759.90 948.19 C 763.71 940.73 771.11 932.09 777.18 928.04 C 784.59 923.09 794.94 919.77 801.63 920.19 L 806.50 920.50 L 796.57 930.24 C 791.12 935.60 786.89 940.22 787.19 940.52 C 787.48 940.81 792.33 937.44 797.96 933.03 C 807.65 925.44 810.02 924.00 809.98 925.75 C 809.91 928.78 805.85 941.41 804.19 943.74 C 800.07 949.52 787.19 960.76 781.72 963.35 C 774.52 966.76 765.82 969.00 759.79 969.00 C 755.21 969.00 755.00 968.87 755.00 966.21Z"/></g>
<g fill="#99A657FC">
<path d="M 1237.50 969.02 C 1231.16 968.03 1222.05 964.81 1216.67 961.65 C 1211.38 958.54 1200.16 946.91 1196.67 940.90 C 1194.11 936.52 1191.26 925.40 1192.40 924.27 C 1192.69 923.97 1197.32 927.28 1202.68 931.62 C 1215.03 941.62 1216.01 942.32 1216.67 941.66 C 1217.35 940.99 1212.95 936.33 1206.89 931.32 C 1204.35 929.22 1200.76 925.74 1198.90 923.59 L 1195.52 919.69 L 1202.35 920.24 C 1212.86 921.08 1222.44 926.21 1232.61 936.46 C 1242.49 946.41 1247.24 955.24 1247.40 963.95 C 1247.49 969.19 1247.36 969.51 1245.00 969.65 C 1243.62 969.73 1240.25 969.44 1237.50 969.02Z"/></g>
<g fill="#99A657FC">
<path d="M 772.50 586.13 C 770.85 585.11 766.67 581.31 763.21 577.68 C 752.69 566.66 748.08 552.95 749.52 537.00 C 750.13 530.27 752.13 523.00 753.37 523.00 C 753.62 523.00 755.99 523.92 758.61 525.05 C 764.59 527.61 777.87 540.84 781.34 547.69 C 785.92 556.72 787.30 563.43 786.74 573.94 C 786.46 579.20 785.91 584.29 785.51 585.25 C 784.68 587.27 783.00 587.60 783.00 585.75 C 783.00 585.06 780.94 580.45 778.44 575.50 C 771.05 560.91 769.88 558.79 769.49 559.18 C 768.99 559.68 773.12 574.11 775.82 581.29 C 777.02 584.47 778.00 587.28 778.00 587.54 C 778.00 588.57 775.33 587.88 772.50 586.13Z"/></g>
<g fill="#99A657FC">
<path d="M 1003.04 491.83 C 1003.02 487.61 1002.56 481.98 1002.02 479.33 C 1001.49 476.67 1000.73 472.70 1000.35 470.50 L 999.65 466.50 L 998.90 471.00 C 998.49 473.48 998.09 478.88 998.02 483.00 C 997.94 487.12 997.56 492.30 997.16 494.50 L 996.43 498.50 L 993.25 494.14 C 986.69 485.18 983.25 470.37 984.94 458.44 C 986.09 450.33 992.02 437.34 996.62 432.88 L 1000.00 429.61 L 1002.62 431.56 C 1006.05 434.13 1012.66 445.14 1014.57 451.48 C 1019.22 466.92 1015.85 485.07 1006.32 495.84 L 1003.08 499.50 L 1003.04 491.83Z"/></g>
<g fill="#99A657FC">
<path d="M 927.41 597.25 C 928.79 592.86 933.00 572.88 932.98 570.81 C 932.96 567.41 931.35 570.20 929.41 577.00 C 928.55 580.02 926.82 584.75 925.56 587.50 C 924.31 590.25 922.95 593.54 922.55 594.81 C 922.16 596.07 921.31 596.94 920.67 596.73 C 918.18 595.91 916.63 588.48 916.57 577.00 C 916.51 566.52 916.74 564.99 919.20 559.74 C 924.27 548.92 937.06 535.00 941.93 535.00 C 945.66 535.00 950.06 547.55 950.21 558.66 C 950.41 573.01 943.68 588.40 934.13 595.41 C 928.75 599.35 926.57 599.95 927.41 597.25Z"/></g>
<g fill="#99A657FC">
<path d="M 1067.24 595.53 C 1055.26 584.75 1049.82 569.65 1051.94 552.98 C 1052.84 545.85 1056.00 536.74 1057.98 535.51 C 1061.63 533.26 1074.48 545.43 1079.74 556.12 C 1084.04 564.86 1085.40 571.76 1084.62 580.96 C 1084.03 588.00 1081.34 596.99 1079.83 597.00 C 1079.46 597.00 1077.94 593.29 1076.45 588.75 C 1074.95 584.21 1072.42 578.02 1070.82 575.00 L 1067.90 569.50 L 1068.53 573.50 C 1068.88 575.70 1070.06 582.39 1071.14 588.36 C 1072.23 594.33 1072.93 599.41 1072.70 599.64 C 1072.47 599.87 1070.01 598.02 1067.24 595.53Z"/></g>
<g fill="#99A657FC">
<path d="M 1086.88 535.68 C 1081.55 529.20 1078.70 522.00 1078.21 513.74 C 1077.41 500.52 1080.76 489.43 1088.91 478.25 C 1092.39 473.48 1094.71 472.95 1097.66 476.25 C 1105.92 485.48 1110.49 502.62 1108.11 515.41 C 1106.26 525.32 1098.58 539.91 1096.37 537.70 C 1096.02 537.36 1095.43 530.98 1095.04 523.54 C 1094.65 516.09 1094.09 509.75 1093.79 509.45 C 1093.14 508.81 1092.28 515.85 1091.38 529.25 C 1091.02 534.61 1090.45 538.97 1090.11 538.93 C 1089.78 538.89 1088.32 537.43 1086.88 535.68Z"/></g>
<g fill="#99A657FC">
<path d="M 911.43 537.50 C 911.60 536.40 911.41 535.05 911.01 534.50 C 910.60 533.95 909.99 528.57 909.63 522.55 C 909.28 516.52 908.61 511.21 908.15 510.75 C 907.68 510.28 906.76 515.21 906.11 521.70 C 904.81 534.46 904.16 538.00 903.10 538.00 C 902.20 538.00 896.58 528.63 894.11 523.00 C 888.40 509.96 891.97 490.50 902.62 476.54 L 906.22 471.83 L 909.68 475.16 C 914.44 479.76 920.83 493.03 922.15 501.08 C 922.96 505.97 922.93 509.48 922.04 514.78 C 920.91 521.45 916.16 532.98 912.67 537.50 L 911.13 539.50 L 911.43 537.50Z"/></g>
<g fill="#99A657FC">
<path d="M 1334.26 922.52 C 1331.39 921.71 1326.89 919.96 1324.26 918.63 C 1318.75 915.83 1309.00 908.29 1309.00 906.84 C 1309.00 906.20 1314.78 906.05 1325.25 906.42 C 1334.19 906.74 1341.05 906.80 1340.50 906.55 C 1339.95 906.30 1333.65 905.16 1326.50 904.00 C 1310.28 901.39 1310.42 901.43 1312.40 899.46 C 1315.71 896.15 1323.35 893.73 1332.07 893.23 C 1342.27 892.65 1348.86 893.96 1357.92 898.37 C 1364.65 901.65 1375.00 910.24 1375.00 912.55 C 1375.00 914.19 1364.03 920.41 1358.50 921.91 C 1351.40 923.82 1339.93 924.12 1334.26 922.52Z"/></g>
<g fill="#99A657FC">
<path d="M 647.24 922.94 C 641.25 921.76 631.58 917.25 628.89 914.38 L 626.62 911.96 L 631.06 907.41 C 636.11 902.23 648.56 895.79 656.80 894.09 C 666.91 892.01 673.26 892.85 684.25 897.72 C 692.90 901.56 692.50 901.87 675.59 904.41 C 670.20 905.22 665.53 906.14 665.22 906.44 C 664.92 906.75 671.04 907.00 678.83 907.00 C 686.62 907.00 693.00 907.22 693.00 907.49 C 693.00 907.75 691.31 909.53 689.25 911.44 C 678.94 920.98 661.50 925.75 647.24 922.94Z"/></g>
<g fill="#99A657FC">
<path d="M 1124.00 535.25 C 1124.00 534.84 1126.28 530.71 1129.07 526.08 C 1141.79 504.92 1140.69 503.76 1126.04 522.89 C 1119.82 531.01 1118.34 530.70 1119.29 521.47 C 1120.41 510.64 1127.47 497.55 1135.87 490.74 C 1140.92 486.64 1151.92 480.63 1156.19 479.62 C 1158.75 479.02 1158.91 479.22 1159.57 483.63 C 1160.88 492.38 1159.40 501.80 1155.46 509.78 C 1150.71 519.39 1141.74 528.98 1133.76 532.96 C 1127.89 535.90 1124.00 536.81 1124.00 535.25Z"/></g>
<g fill="#2A4866FD">
<path d="M 1234.50 886.28 C 1231.13 885.46 1229.00 882.85 1229.00 879.54 C 1229.00 876.82 1227.56 875.04 1218.59 866.70 C 1212.86 861.37 1206.98 856.56 1205.52 856.01 C 1202.16 854.73 1183.23 854.73 1162.24 856.01 C 1147.78 856.89 1143.61 857.41 1134.00 859.58 C 1128.98 860.71 1133.67 858.06 1149.92 850.59 C 1158.94 846.43 1167.44 842.02 1168.80 840.77 C 1170.16 839.52 1173.28 835.38 1175.74 831.57 C 1180.11 824.81 1180.18 824.57 1178.61 821.92 C 1176.14 817.74 1176.54 813.50 1179.63 811.07 C 1181.08 809.93 1183.03 809.00 1183.96 809.00 C 1185.83 809.00 1189.34 812.48 1190.35 815.34 C 1191.34 818.11 1188.01 822.94 1184.52 823.83 C 1182.18 824.42 1180.78 825.93 1178.28 830.55 C 1175.29 836.07 1174.17 840.00 1175.60 840.00 C 1175.92 840.00 1178.51 839.34 1181.35 838.54 C 1184.18 837.74 1191.39 836.65 1197.36 836.11 C 1208.05 835.16 1208.28 835.08 1211.50 831.57 C 1217.20 825.35 1225.00 827.42 1225.00 835.17 C 1225.00 838.51 1221.76 841.00 1217.40 841.00 C 1215.66 841.00 1213.68 840.33 1213.00 839.50 C 1210.83 836.88 1188.13 838.40 1176.50 841.95 C 1165.51 845.30 1149.83 852.88 1153.54 853.04 C 1154.07 853.07 1176.54 853.12 1203.47 853.17 C 1248.92 853.25 1252.51 853.13 1253.47 851.52 C 1257.74 844.34 1262.46 842.91 1267.54 847.28 C 1271.14 850.38 1271.42 856.43 1268.09 859.13 C 1264.68 861.89 1258.91 861.59 1256.00 858.50 L 1253.65 856.00 L 1232.83 856.00 C 1218.38 856.00 1212.00 856.34 1212.00 857.10 C 1212.00 858.17 1217.18 863.13 1225.87 870.39 C 1229.30 873.26 1230.54 873.78 1232.02 872.99 C 1235.49 871.13 1239.72 871.83 1241.93 874.63 C 1244.68 878.13 1244.55 881.55 1241.55 884.55 C 1239.10 887.00 1238.27 887.20 1234.50 886.28Z"/></g>
<g fill="#2A4866FD">
<path d="M 760.34 883.43 C 758.27 881.36 757.90 880.25 758.39 877.68 C 758.73 875.93 760.00 873.68 761.22 872.67 C 763.35 870.90 764.76 870.88 770.61 872.56 C 772.21 873.01 774.58 871.60 780.54 866.62 C 789.04 859.53 790.93 857.19 789.08 856.05 C 788.44 855.66 778.83 855.54 767.71 855.80 C 748.24 856.24 747.40 856.34 744.67 858.63 C 738.79 863.56 731.00 860.27 731.00 852.86 C 731.00 845.32 739.49 842.34 745.08 847.92 C 746.71 849.56 747.75 851.48 747.45 852.28 C 746.98 853.50 750.43 853.66 771.20 853.39 C 784.56 853.21 800.23 852.82 806.00 852.52 C 811.77 852.22 820.33 852.44 825.00 853.02 C 832.62 853.95 843.39 854.46 848.31 854.12 C 849.30 854.06 849.83 853.54 849.48 852.98 C 848.61 851.57 835.70 845.14 829.00 842.79 C 816.82 838.50 791.55 836.43 789.00 839.50 C 787.35 841.49 780.58 841.44 778.57 839.43 C 774.80 835.66 778.14 827.75 783.50 827.75 C 786.56 827.75 791.00 831.82 791.00 834.62 C 791.00 835.68 791.60 835.94 793.00 835.50 C 794.10 835.15 795.00 835.23 795.00 835.68 C 795.00 836.13 798.49 836.53 802.75 836.56 C 807.01 836.60 814.00 837.22 818.27 837.96 C 822.55 838.69 826.33 839.00 826.68 838.65 C 827.03 838.31 825.96 835.43 824.31 832.26 C 821.63 827.11 819.57 825.06 813.42 821.42 C 810.93 819.95 810.99 813.77 813.53 810.97 C 815.73 808.54 820.07 808.85 823.18 811.67 C 825.46 813.73 825.53 818.75 823.32 821.20 C 821.73 822.96 821.83 823.43 825.07 829.61 C 829.67 838.39 834.30 842.23 850.14 850.35 C 864.90 857.93 870.30 861.03 869.72 861.62 C 869.50 861.83 865.99 861.15 861.92 860.12 C 847.05 856.34 802.56 853.30 796.90 855.68 C 795.36 856.33 791.23 859.48 787.72 862.68 C 784.21 865.88 779.47 870.12 777.17 872.11 C 773.72 875.09 773.00 876.33 773.00 879.30 C 773.00 885.85 765.28 888.37 760.34 883.43Z"/></g>
<g fill="#99A657FC">
<path d="M 871.23 533.53 C 857.17 526.98 843.00 505.85 843.00 491.43 C 843.00 484.63 844.25 479.00 845.76 479.00 C 849.18 479.00 862.59 486.65 868.08 491.73 C 878.63 501.50 884.52 514.87 883.80 527.36 L 883.50 532.50 L 877.59 524.00 C 871.52 515.27 866.19 509.00 864.84 509.00 C 864.11 509.00 866.51 513.80 874.36 528.00 C 879.47 537.23 879.41 537.33 871.23 533.53Z"/></g>
<g fill="#99A657FC">
<path d="M 811.73 563.14 C 804.54 555.46 800.00 544.52 800.00 534.91 C 800.00 523.93 805.81 505.00 809.18 505.00 C 809.81 505.00 812.22 506.11 814.54 507.47 C 822.51 512.14 828.51 524.80 829.63 539.32 C 830.16 546.30 829.92 548.91 828.17 554.62 C 827.02 558.40 825.30 562.59 824.36 563.92 C 822.66 566.32 822.62 566.24 820.95 556.42 C 820.02 550.97 818.54 544.92 817.66 543.00 C 816.11 539.61 816.06 539.97 816.28 553.75 C 816.40 561.59 816.45 568.00 816.39 568.00 C 816.32 568.00 814.23 565.81 811.73 563.14Z"/></g>
<g fill="#99A657FC">
<path d="M 1185.42 563.75 C 1186.51 558.38 1187.04 538.00 1186.08 538.00 C 1185.02 538.00 1184.07 540.95 1180.44 555.50 C 1179.20 560.45 1178.15 563.46 1178.10 562.19 C 1178.04 560.92 1177.57 560.15 1177.05 560.47 C 1176.52 560.79 1175.37 558.68 1174.49 555.78 C 1169.62 539.80 1172.84 523.16 1183.18 510.90 C 1188.40 504.71 1190.56 503.39 1192.64 505.12 C 1195.08 507.14 1198.90 515.46 1200.49 522.23 C 1204.23 538.08 1200.82 550.82 1189.65 562.75 C 1186.08 566.56 1184.78 566.87 1185.42 563.75Z"/></g>
<g fill="#99A657FC">
<path d="M 978.61 815.75 C 963.79 807.71 956.62 796.60 954.85 778.93 C 954.29 773.39 954.09 768.20 954.40 767.40 C 955.12 765.53 958.37 766.26 967.34 770.30 C 975.81 774.11 983.51 782.20 988.75 792.80 C 991.89 799.17 992.41 801.25 992.73 808.81 L 993.10 817.50 L 988.91 813.00 C 986.60 810.52 982.48 805.44 979.74 801.70 C 977.01 797.96 974.54 795.12 974.27 795.40 C 973.70 795.96 979.89 807.40 984.16 813.68 C 985.72 815.98 987.00 818.12 987.00 818.43 C 987.00 819.68 984.22 818.79 978.61 815.75Z"/></g>
<g fill="#99A657FC">
<path d="M 1354.25 804.51 C 1347.65 802.66 1341.38 799.50 1340.21 797.42 C 1339.72 796.54 1338.91 795.86 1338.41 795.91 C 1337.91 795.96 1337.50 795.44 1337.50 794.75 C 1337.50 794.06 1336.83 793.15 1336.00 792.73 C 1335.17 792.31 1339.22 792.18 1345.00 792.45 C 1350.78 792.72 1356.16 792.53 1356.97 792.02 C 1358.99 790.77 1357.73 790.40 1346.55 789.00 C 1341.62 788.38 1337.01 787.55 1336.31 787.15 C 1334.62 786.21 1342.02 781.36 1347.49 779.82 C 1353.87 778.02 1366.69 778.37 1373.47 780.52 C 1380.67 782.80 1390.89 789.47 1392.98 793.24 C 1395.06 796.99 1393.77 798.81 1386.46 802.49 C 1381.13 805.17 1379.42 805.51 1370.01 805.73 C 1363.12 805.89 1357.69 805.47 1354.25 804.51Z"/></g>
<g fill="#99A657FC">
<path d="M 621.76 804.40 C 616.10 802.66 610.38 799.43 609.66 797.56 C 608.85 795.44 609.65 792.47 610.96 792.77 C 611.61 792.93 611.89 792.63 611.58 792.13 C 610.71 790.72 617.76 785.00 623.76 782.25 C 631.70 778.62 640.59 777.35 648.59 778.72 C 656.49 780.08 666.58 784.81 664.99 786.43 C 664.41 787.02 659.67 788.17 654.46 789.00 C 649.26 789.83 645.11 790.95 645.25 791.50 C 645.54 792.67 649.47 792.68 660.50 791.52 L 668.50 790.68 L 665.91 794.09 C 658.79 803.45 635.98 808.78 621.76 804.40Z"/></g>
<g fill="#99A657FC">
<path d="M 1015.00 817.58 C 1015.00 817.35 1017.46 813.58 1020.47 809.21 C 1030.16 795.16 1030.24 791.03 1020.57 804.00 C 1017.32 808.38 1013.33 813.21 1011.71 814.73 L 1008.77 817.50 L 1009.20 808.85 C 1009.56 801.70 1010.18 799.08 1012.77 793.82 C 1019.13 780.89 1032.02 770.17 1043.41 768.32 L 1047.28 767.69 L 1046.81 778.10 C 1046.23 791.15 1043.37 798.26 1035.68 805.77 C 1029.41 811.89 1015.00 820.13 1015.00 817.58Z"/></g>
<g fill="#99A657FC">
<path d="M 755.41 689.49 C 748.13 687.53 738.96 681.85 734.11 676.29 C 729.07 670.51 724.86 662.28 724.65 657.79 L 724.50 654.50 L 730.28 654.20 C 745.90 653.39 762.34 662.37 770.14 676.00 C 773.09 681.15 774.51 686.00 773.07 686.00 C 772.53 686.00 767.94 682.85 762.87 679.01 C 757.80 675.16 753.40 672.26 753.10 672.57 C 752.80 672.87 756.82 677.12 762.03 682.01 L 771.50 690.90 L 766.00 690.89 C 762.98 690.88 758.21 690.25 755.41 689.49Z"/></g>
<g fill="#99A657FC">
<path d="M 1218.63 740.21 C 1217.38 738.19 1219.24 736.14 1226.56 731.43 C 1230.64 728.80 1233.78 726.45 1233.54 726.21 C 1233.30 725.96 1229.07 727.39 1224.16 729.38 C 1215.53 732.88 1209.02 734.38 1213.29 731.90 C 1214.47 731.21 1214.88 730.19 1214.48 728.93 C 1213.68 726.41 1222.49 717.58 1229.57 713.78 C 1241.58 707.36 1260.07 705.99 1263.41 711.28 C 1266.22 715.75 1252.14 732.84 1241.41 737.98 C 1235.99 740.58 1219.83 742.16 1218.63 740.21Z"/></g>
<g fill="#99A657FC">
<path d="M 767.23 740.47 C 759.95 738.48 757.08 736.85 750.87 731.14 C 745.35 726.08 739.63 717.61 738.45 712.77 C 737.88 710.41 738.18 709.88 740.65 708.92 C 745.09 707.20 759.53 708.33 766.28 710.94 C 773.39 713.68 782.51 721.85 786.36 728.92 C 787.88 731.71 788.76 733.99 788.31 733.99 C 786.69 733.96 778.73 730.90 773.85 728.42 C 764.98 723.93 766.44 726.41 776.43 732.80 C 784.45 737.93 785.90 739.24 784.82 740.32 C 783.01 742.13 773.60 742.21 767.23 740.47Z"/></g>
</svg>
